# xmcd
#
# Track frame offsets:
#	150
#	11436
#	32628
#	66156
#	77840
#	100637
#	120997
#	135255
#	143913
#	164980
#	175375
#	208823
#	223270
#	246503
#	256392
#	266956
#	279763
#	292131
#
# Disc length: 4053 seconds
#
# Revision: 1
# Processed by: cddbd v1.5.1PL0 Copyright (c) Steve Scherf et al.
# Submitted via: audiograbber 1.82.01
#
DISCID=180fd312
DTITLE=Various Artist - Blues Guitar Heroes - Vol 1
DYEAR=2000
DGENRE=Blues
TTITLE0=John Lee Hooker - Boom Boom
TTITLE1=Lightnin' Hopkins - Shake It Baby
TTITLE2=Bo Diddley - Intro/bo Diddley Vamp
TTITLE3=B.B. King - Paying The Cost To Be The Boss
TTITLE4=Howlin' Wolf - Little Red Rooster
TTITLE5=Junior Wells - Junior's Shuffle
TTITLE6=Buddy Guy - Broken Hearted Blues
TTITLE7=John Lee Hooker - Hobo Blues
TTITLE8=Bo Diddley - Evelee
TTITLE9=Robert Johnson - Love In Vain
TTITLE10=Buddy Guy - Stone Crazy
TTITLE11=Lightnin' Hopkins - Santa Fe Blues
TTITLE12=Howlin' Wolf - Wvil
TTITLE13=Buddy Guy - First Time I Met The Blues
TTITLE14=Robert Johnson - Ramblin' On My Mind
TTITLE15=Big Bill Broonzy - How Do You Want It Done
TTITLE16=Sonny Terry and Brownie Mcghee - Working Man's Blues
TTITLE17=Joe Williams - Baby Please Don't Go
EXTD=Vol 1 of 3
EXTT0=
EXTT1=
EXTT2=
EXTT3=
EXTT4=
EXTT5=
EXTT6=
EXTT7=
EXTT8=
EXTT9=
EXTT10=
EXTT11=
EXTT12=
EXTT13=
EXTT14=
EXTT15=
EXTT16=
EXTT17=
PLAYORDER=
